PathFileType	4	(X/Y/Z)	C:\Users\dbl\Desktop\20210112\20210112\bx_n_5_501.trc
DataRate	CameraRate	NumFrames	NumMarkers	Units	OrigDataRate	OrigDataStartFrame	OrigNumFrames
50.00	50.00	       7	43	mm	50.00	388	       517
Frame#	Time	Top.Head			R.Acromium			L.Acromium			Sternum			R.ASIS			L.ASIS			V.Sacral			R.Thigh.Upper			R.Thigh.Front			R.Thigh.Rear			R.Knee.Lat			R.Knee.Med			R.Shank.Upper			R.Shank.Front			R.Shank.Rear			R.Ankle.Lat			R.Midfoot.Lat			R.Toe.Lat			R.Toe.Tip			R.Toe.Med			R.Ankle.Med			R.Midfoot.Sup			R.Heel			L.Thigh.Upper			L.Thigh.Front			L.Thigh.Rear			L.Knee.Lat			L.Knee.Med			L.Shank.Upper			L.Shank.Front			L.Shank.Rear			L.Ankle.Lat			L.Midfoot.Lat			L.Toe.Lat			L.Toe.Tip			L.Toe.Med			L.Ankle.Med			L.Midfoot.Sup			L.Heel			origin1 front left			origin2 front right			origin 3 back right			origin 4 back leftt			
		X1	Y1	Z1	X2	Y2	Z2	X3	Y3	Z3	X4	Y4	Z4	X5	Y5	Z5	X6	Y6	Z6	X7	Y7	Z7	X8	Y8	Z8	X9	Y9	Z9	X10	Y10	Z10	X11	Y11	Z11	X12	Y12	Z12	X13	Y13	Z13	X14	Y14	Z14	X15	Y15	Z15	X16	Y16	Z16	X17	Y17	Z17	X18	Y18	Z18	X19	Y19	Z19	X20	Y20	Z20	X21	Y21	Z21	X22	Y22	Z22	X23	Y23	Z23	X24	Y24	Z24	X25	Y25	Z25	X26	Y26	Z26	X27	Y27	Z27	X28	Y28	Z28	X29	Y29	Z29	X30	Y30	Z30	X31	Y31	Z31	X32	Y32	Z32	X33	Y33	Z33	X34	Y34	Z34	X35	Y35	Z35	X36	Y36	Z36	X37	Y37	Z37	X38	Y38	Z38	X39	Y39	Z39	X40	Y40	Z40	X41	Y41	Z41	X42	Y42	Z42	X43	Y43	Z43	

388	7.740	-163.33313	144.09181	1389.90637	-354.50223	-27.93789	1196.87415	-379.80341	288.59689	1195.42761	-516.03937	114.87660	1064.60669	-760.17206	0.07312	993.99231	-766.73767	244.76662	1015.04138	-935.93451	94.75423	1096.26477	-833.49615	-70.74773	863.53577	-748.47577	-0.92644	804.09229	-830.04053	-65.34818	747.14160	-815.57751	-38.29273	608.54181	-799.17767	70.68061	564.44177	-813.45996	-36.99084	561.05872	-755.46478	14.49073	525.01819	-834.35498	-52.79073	473.92593	-762.82288	-25.99854	203.84312	-647.65735	-67.37671	162.04680	-605.35406	-72.67014	157.11113	-549.63800	-21.72193	162.47601	-601.08966	28.89300	166.57556	-729.14752	64.21735	220.23090	-675.86829	51.21200	162.81622	-795.44263	33.50708	173.75102	-867.58813	290.60083	864.75134	-756.19946	228.18188	791.98096	-845.49097	284.45526	730.29901	-849.68304	256.96912	626.43665	-797.52899	149.01137	570.16998	-834.82330	252.44376	562.75183	-771.41980	211.51385	536.64313	-854.90143	263.91260	483.33655	-773.87555	231.37723	202.10805	-660.30585	298.61276	156.04010	-623.50946	306.62527	158.49594	-557.77020	253.58420	163.54250	-594.55518	218.27487	173.45454	-721.71936	158.99266	223.95059	-677.41028	175.59280	163.64224	-799.28961	181.96631	182.44275	-527.95227	304.19693	146.46681	-517.85425	-72.67671	143.14624	-875.90869	-78.60812	141.31618	-882.61108	296.06296	144.65192	
389	7.760	-166.01935	143.80528	1396.39490	-355.58780	-28.22792	1201.56848	-381.45984	288.70868	1199.74670	-516.36584	114.71541	1067.42700	-759.70789	-0.22495	994.66028	-766.30334	244.51447	1015.66113	-935.94025	94.36773	1095.94543	-832.94391	-70.93089	863.47729	-748.08423	-1.26785	803.99408	-829.66461	-65.65548	747.14111	-815.43408	-38.43307	608.49432	-798.81122	70.48724	564.53741	-813.25122	-37.21882	561.15527	-755.31628	14.31235	524.94489	-834.26996	-53.08270	473.98981	-762.91101	-25.95115	203.70415	-647.68201	-67.42256	162.04736	-605.33527	-72.69211	157.12451	-549.63116	-21.71066	162.43858	-601.08728	28.88891	166.63043	-729.13562	64.17522	220.23012	-675.92694	51.22654	162.79852	-795.43707	33.53167	173.68385	-867.02686	290.23337	864.81635	-755.65521	228.01537	791.95532	-844.94720	284.19907	730.40222	-849.34338	256.74200	626.45752	-797.26904	148.86542	570.03442	-834.41553	252.18149	562.76544	-771.11322	211.48175	536.64624	-854.61700	263.86166	483.43237	-773.86475	231.30916	202.07172	-660.33118	298.59705	156.02072	-623.51483	306.62289	158.50563	-557.74664	253.64642	163.59856	-594.57452	218.32936	173.49387	-721.70715	158.98341	223.86203	-677.36737	175.55797	163.56149	-799.29779	181.83899	182.41418	-527.93127	304.17776	146.44441	-517.86499	-72.66026	143.12677	-875.91565	-78.63765	141.31487	-882.62921	296.04510	144.63316	
390	7.780	-169.18604	143.58862	1403.67102	-356.89899	-28.54689	1206.74756	-383.36929	288.78040	1204.45190	-516.68536	114.55219	1070.51782	-759.23914	-0.48970	995.36694	-765.96155	244.27258	1016.40216	-935.90021	93.90968	1095.58887	-832.38007	-71.13988	863.48364	-747.66077	-1.69541	803.91400	-829.29181	-65.92639	747.10455	-815.26245	-38.61167	608.50146	-798.45667	70.32844	564.63416	-813.01825	-37.42720	561.19104	-755.14337	14.20426	524.87183	-834.20648	-53.31580	474.01563	-763.04034	-25.89367	203.62057	-647.69403	-67.45754	162.05307	-605.31494	-72.70117	157.12668	-549.64508	-21.73574	162.39728	-601.07166	28.86681	166.64783	-729.12408	64.18941	220.23390	-675.97437	51.23031	162.77753	-795.41443	33.56516	173.61690	-866.39691	289.87100	864.89844	-755.09705	227.79099	791.95740	-844.42780	283.96259	730.48621	-848.98975	256.56821	626.46741	-796.94580	148.73840	569.95001	-834.01300	252.07884	562.87543	-770.84607	211.40265	536.61700	-854.39709	263.81451	483.51657	-773.86115	231.25301	202.01796	-660.32953	298.59076	156.01764	-623.54083	306.62869	158.52873	-557.74438	253.68307	163.63551	-594.59320	218.38995	173.53610	-721.71576	158.93642	223.69432	-677.31580	175.53693	163.51997	-799.32489	181.75688	182.43553	-527.92755	304.18655	146.43756	-517.86823	-72.64446	143.09863	-875.92627	-78.67977	141.32350	-882.63171	296.01721	144.62030	
391	7.800	-172.85239	143.46040	1411.72119	-358.45355	-28.86998	1212.36206	-385.50461	288.79605	1209.55151	-516.99622	114.38726	1073.88330	-758.73499	-0.75397	996.10248	-765.63098	243.96132	1017.20178	-935.83679	93.42175	1095.25000	-831.78448	-71.41230	863.57245	-747.18134	-2.16983	803.89709	-828.91150	-66.13287	747.05762	-815.02399	-38.79128	608.52063	-798.12866	70.19955	564.74139	-812.74603	-37.58441	561.13062	-754.87683	14.12679	524.83331	-834.11139	-53.48740	473.99979	-763.16028	-25.82150	203.59068	-647.71490	-67.48461	162.05281	-605.31805	-72.69631	157.10785	-549.66608	-21.78938	162.36397	-601.04688	28.83116	166.63779	-729.10797	64.27132	220.20206	-675.99359	51.23379	162.75293	-795.39105	33.60674	173.54977	-865.72241	289.49750	864.98926	-754.55652	227.44536	791.99231	-843.93658	283.68143	730.56311	-848.58478	256.42407	626.50861	-796.56799	148.61943	569.93042	-833.66144	252.11795	563.06976	-770.58026	211.26968	536.59192	-854.23151	263.74026	483.59067	-773.87738	231.18977	201.95261	-660.32220	298.59064	156.02129	-623.58435	306.63873	158.55388	-557.76538	253.67862	163.63303	-594.61743	218.48265	173.59924	-721.74432	158.84563	223.48466	-677.27667	175.54497	163.47179	-799.34015	181.71507	182.45503	-527.94397	304.19968	146.44658	-517.86377	-72.64174	143.07852	-875.92737	-78.70868	141.32162	-882.61633	295.98636	144.60873	
392	7.820	-177.01297	143.40741	1420.52393	-360.29437	-29.19200	1218.38831	-387.83987	288.77002	1215.08667	-517.29663	114.22094	1077.52734	-758.14386	-1.04912	996.89667	-765.24078	243.52048	1017.99567	-935.76984	92.93264	1094.92310	-831.13995	-71.72366	863.72449	-746.63751	-2.63652	803.93958	-828.47754	-66.29790	747.06073	-814.68945	-38.94909	608.49628	-797.81665	70.07603	564.85370	-812.43555	-37.70717	560.98419	-754.49927	14.01526	524.83533	-833.93237	-53.60644	473.93488	-763.23492	-25.74297	203.55618	-647.75800	-67.50753	162.05052	-605.34766	-72.68131	157.06380	-549.67981	-21.83833	162.34842	-601.03217	28.79800	166.62215	-729.08563	64.38406	220.12218	-675.98749	51.24093	162.73051	-795.38745	33.64437	173.49361	-865.00500	289.10022	865.07837	-754.00024	226.99225	792.03497	-843.42584	283.33041	730.66296	-848.11469	256.26379	626.58923	-796.17822	148.51625	569.95081	-833.37085	252.16220	563.27148	-770.26825	211.12582	536.62366	-854.07758	263.64325	483.66742	-773.91882	231.12009	201.88989	-660.32855	298.59909	156.02711	-623.63153	306.64441	158.56277	-557.79346	253.63995	163.59410	-594.65143	218.61884	173.68700	-721.76849	158.75815	223.30386	-677.27344	175.56836	163.41075	-799.32660	181.69962	182.41469	-527.96582	304.18509	146.45432	-517.85577	-72.64854	143.07695	-875.91656	-78.70189	141.30681	-882.59399	295.97272	144.60593	
393	7.840	-181.66107	143.38672	1430.06958	-362.47638	-29.56243	1224.84351	-390.38004	288.75430	1221.08862	-517.58478	114.05354	1081.45422	-757.41925	-1.35821	997.78577	-764.77911	242.98634	1018.77625	-935.69495	92.44113	1094.56067	-830.42780	-72.02150	863.91113	-746.00140	-3.05204	803.99518	-827.94086	-66.46624	747.13464	-814.26776	-39.09104	608.41217	-797.49072	69.91671	564.93915	-812.11029	-37.84585	560.83167	-754.05609	13.82156	524.84912	-833.66461	-53.69423	473.83670	-763.28143	-25.66584	203.48325	-647.80743	-67.52699	162.04735	-605.37988	-72.67468	157.01605	-549.69391	-21.86833	162.33650	-601.03113	28.77958	166.62444	-729.06604	64.46728	220.02681	-675.97070	51.24067	162.71243	-795.41632	33.67437	173.45134	-864.21692	288.65488	865.16583	-753.36243	226.53677	792.06372	-842.84369	282.94150	730.81628	-847.61438	256.05469	626.70746	-795.78119	148.41922	569.97656	-833.10126	252.07434	563.41156	-769.89551	211.00932	536.72247	-853.88416	263.54456	483.76184	-773.97626	231.05318	201.84537	-660.35083	298.61447	156.03613	-623.67181	306.64291	158.54951	-557.81995	253.58658	163.54045	-594.68707	218.78285	173.78192	-721.77612	158.70206	223.18747	-677.29529	175.56683	163.37581	-799.26526	181.70274	182.26404	-527.97614	304.14035	146.44284	-517.85010	-72.66376	143.09099	-875.90070	-78.66371	141.28061	-882.57458	295.97586	144.61230	
394	7.860	-186.81976	143.37234	1440.33435	-364.99359	-30.09545	1231.79333	-393.11835	288.80948	1227.58704	-517.85901	113.88539	1085.66797	-756.55396	-1.61699	998.78442	-764.25140	242.47562	1019.62256	-935.59808	91.94607	1094.15039	-829.62445	-72.27543	864.09827	-745.22540	-3.39952	804.02246	-827.28766	-66.64434	747.23651	-813.78998	-39.26563	608.32318	-797.11810	69.68554	564.96375	-811.79626	-38.02980	560.76202	-753.62250	13.54924	524.83044	-833.34680	-53.79674	473.74457	-763.34479	-25.58958	203.39398	-647.85376	-67.55038	162.02199	-605.39258	-72.68549	156.98943	-549.72198	-21.89314	162.32310	-601.03894	28.77292	166.66481	-729.06702	64.48647	219.96593	-675.95947	51.23418	162.70181	-795.47253	33.69911	173.40553	-863.33557	288.15469	865.27820	-752.60046	226.17383	792.08258	-842.16010	282.55499	731.01367	-847.10999	255.78079	626.85901	-795.33752	148.28203	570.01758	-832.78973	251.83789	563.50256	-769.47614	210.90984	536.83514	-853.60950	263.45706	483.88617	-774.03302	230.99471	201.81960	-660.37970	298.63199	156.04674	-623.70258	306.63721	158.52042	-557.85126	253.53613	163.49969	-594.70917	218.93631	173.85933	-721.78888	158.65863	223.10580	-677.31586	175.53760	163.37244	-799.15332	181.71407	181.99706	-527.97040	304.10098	146.41837	-517.84888	-72.69292	143.10571	-875.88727	-78.62459	141.24152	-882.55798	295.97586	144.62062	
